<mxfile host="app.diagrams.net" modified="2023-05-31T09:58:09.861Z" agent="Mozilla/5.0 (Macintosh; Intel Mac OS X 10_15_7) AppleWebKit/537.36 (KHTML, like Gecko) Chrome/112.0.0.0 Safari/537.36" etag="tTC4xJjfomtVVQ39Vhjm" version="21.2.9" type="device">
  <diagram name="Page-1" id="VX3tXjpaGK2K5c025x0M">
    <mxGraphModel dx="2562" dy="1178" grid="1" gridSize="10" guides="1" tooltips="1" connect="1" arrows="1" fold="1" page="1" pageScale="1" pageWidth="827" pageHeight="1169" math="0" shadow="0">
      <root>
        <mxCell id="0" />
        <mxCell id="1" parent="0" />
        <mxCell id="Etq4UHucQwQJqIpz8_BF-20" value="&lt;p style=&quot;margin:0px;margin-top:4px;text-align:center;&quot;&gt;&lt;b&gt;School Entity&lt;/b&gt;&lt;/p&gt;&lt;hr size=&quot;1&quot;&gt;&lt;p style=&quot;margin:0px;margin-left:4px;&quot;&gt;- name : String&lt;/p&gt;&lt;p style=&quot;margin:0px;margin-left:4px;&quot;&gt;- id : String&lt;/p&gt;&lt;p style=&quot;margin:0px;margin-left:4px;&quot;&gt;- role : String&lt;/p&gt;&lt;hr size=&quot;1&quot;&gt;&lt;p style=&quot;margin:0px;margin-left:4px;&quot;&gt;+ SchoolEntity (id: String, name: String, role: String)&amp;nbsp;&lt;/p&gt;&lt;p style=&quot;margin:0px;margin-left:4px;&quot;&gt;+ CheckIn() : boolean&lt;/p&gt;" style="verticalAlign=top;align=left;overflow=fill;fontSize=12;fontFamily=Helvetica;html=1;whiteSpace=wrap;" parent="1" vertex="1">
          <mxGeometry x="185" y="100" width="200" height="140" as="geometry" />
        </mxCell>
        <mxCell id="Etq4UHucQwQJqIpz8_BF-21" value="&lt;p style=&quot;margin:0px;margin-top:4px;text-align:center;&quot;&gt;&lt;b&gt;Student&lt;/b&gt;&lt;/p&gt;&lt;hr size=&quot;1&quot;&gt;&lt;p style=&quot;margin:0px;margin-left:4px;&quot;&gt;&lt;br&gt;&lt;/p&gt;&lt;hr size=&quot;1&quot;&gt;&lt;p style=&quot;margin:0px;margin-left:4px;&quot;&gt;+ Student (id: String, name: String, role: String)&lt;/p&gt;&lt;p style=&quot;margin:0px;margin-left:4px;&quot;&gt;+ SubmitAssignment (ID: String, data: String, submitterID: String): boolean&lt;/p&gt;&lt;p style=&quot;margin:0px;margin-left:4px;&quot;&gt;&lt;br&gt;&lt;/p&gt;" style="verticalAlign=top;align=left;overflow=fill;fontSize=12;fontFamily=Helvetica;html=1;whiteSpace=wrap;" parent="1" vertex="1">
          <mxGeometry x="345" y="300" width="200" height="140" as="geometry" />
        </mxCell>
        <mxCell id="Etq4UHucQwQJqIpz8_BF-23" value="&lt;p style=&quot;margin:0px;margin-top:4px;text-align:center;&quot;&gt;&lt;b&gt;Teacher&lt;/b&gt;&lt;/p&gt;&lt;hr size=&quot;1&quot;&gt;&lt;p style=&quot;margin:0px;margin-left:4px;&quot;&gt;&lt;br&gt;&lt;/p&gt;&lt;hr size=&quot;1&quot;&gt;&lt;p style=&quot;margin:0px;margin-left:4px;&quot;&gt;+ Teacher (id: String, name: String, role: String)&lt;/p&gt;&lt;p style=&quot;margin:0px;margin-left:4px;&quot;&gt;+ Announce (title: String, desc: String, creator: String) : boolean {redefines Announce}&lt;/p&gt;&lt;p style=&quot;margin:0px;margin-left:4px;&quot;&gt;+ StudentCheckIn (studentId: String) : boolean&lt;/p&gt;&lt;p style=&quot;margin:0px;margin-left:4px;&quot;&gt;+ AddAssignment (title: String, desc: String, posterId: String, deadline: String) : boolean&lt;/p&gt;&lt;p style=&quot;margin:0px;margin-left:4px;&quot;&gt;+ RemoveAnnouncement (announcementId: String) : boolean&lt;/p&gt;&lt;p style=&quot;margin:0px;margin-left:4px;&quot;&gt;{redefines RemoveAnnouncement}&lt;/p&gt;&lt;p style=&quot;margin:0px;margin-left:4px;&quot;&gt;+ ScoreAssignment (score: String, feedback: String, ID: String, studID: String) : boolean&lt;/p&gt;&lt;p style=&quot;margin:0px;margin-left:4px;&quot;&gt;&lt;br&gt;&lt;/p&gt;" style="verticalAlign=top;align=left;overflow=fill;fontSize=12;fontFamily=Helvetica;html=1;whiteSpace=wrap;" parent="1" vertex="1">
          <mxGeometry x="-255" y="300" width="200" height="300" as="geometry" />
        </mxCell>
        <mxCell id="Etq4UHucQwQJqIpz8_BF-39" value="&lt;p style=&quot;margin:0px;margin-top:4px;text-align:center;&quot;&gt;&lt;b&gt;Admin&lt;/b&gt;&lt;/p&gt;&lt;hr size=&quot;1&quot;&gt;&lt;p style=&quot;margin:0px;margin-left:4px;&quot;&gt;&lt;br&gt;&lt;/p&gt;&lt;hr size=&quot;1&quot;&gt;&lt;p style=&quot;margin:0px;margin-left:4px;&quot;&gt;+ Admin (id: String, name: String, role: String)&lt;/p&gt;&lt;p style=&quot;margin:0px;margin-left:4px;&quot;&gt;+ Announce (title: String, desc: String, creator: String) : boolean&lt;/p&gt;&lt;p style=&quot;margin:0px;margin-left:4px;&quot;&gt;+ RemoveAnnouncement (announcementId: String) : boolean&lt;/p&gt;" style="verticalAlign=top;align=left;overflow=fill;fontSize=12;fontFamily=Helvetica;html=1;whiteSpace=wrap;" parent="1" vertex="1">
          <mxGeometry x="25" y="300" width="200" height="160" as="geometry" />
        </mxCell>
        <mxCell id="tbCGJLyKlgOgYzXRze9G-5" value="Extends" style="endArrow=block;endSize=16;endFill=0;html=1;rounded=0;exitX=1;exitY=0.25;exitDx=0;exitDy=0;" edge="1" parent="1" source="Etq4UHucQwQJqIpz8_BF-23">
          <mxGeometry width="160" relative="1" as="geometry">
            <mxPoint x="-50" y="370" as="sourcePoint" />
            <mxPoint x="26" y="370" as="targetPoint" />
          </mxGeometry>
        </mxCell>
        <mxCell id="tbCGJLyKlgOgYzXRze9G-9" value="Extends" style="endArrow=block;endSize=16;endFill=0;html=1;rounded=0;exitX=1;exitY=0;exitDx=0;exitDy=0;entryX=0.5;entryY=1;entryDx=0;entryDy=0;" edge="1" parent="1" source="Etq4UHucQwQJqIpz8_BF-39" target="Etq4UHucQwQJqIpz8_BF-20">
          <mxGeometry width="160" relative="1" as="geometry">
            <mxPoint x="195" y="470" as="sourcePoint" />
            <mxPoint x="355" y="470" as="targetPoint" />
          </mxGeometry>
        </mxCell>
        <mxCell id="tbCGJLyKlgOgYzXRze9G-10" value="Extends" style="endArrow=block;endSize=16;endFill=0;html=1;rounded=0;entryX=0.5;entryY=1;entryDx=0;entryDy=0;exitX=0;exitY=0;exitDx=0;exitDy=0;" edge="1" parent="1" source="Etq4UHucQwQJqIpz8_BF-21" target="Etq4UHucQwQJqIpz8_BF-20">
          <mxGeometry width="160" relative="1" as="geometry">
            <mxPoint x="395" y="290" as="sourcePoint" />
            <mxPoint x="355" y="240" as="targetPoint" />
          </mxGeometry>
        </mxCell>
        <mxCell id="tbCGJLyKlgOgYzXRze9G-14" value="«interface»&lt;br&gt;ActionListener" style="html=1;whiteSpace=wrap;" vertex="1" parent="1">
          <mxGeometry x="-30" y="840" width="110" height="50" as="geometry" />
        </mxCell>
        <mxCell id="tbCGJLyKlgOgYzXRze9G-15" value="&lt;p style=&quot;margin:0px;margin-top:4px;text-align:center;&quot;&gt;&lt;i&gt;&amp;lt;&amp;lt;Interface&amp;gt;&amp;gt;&lt;/i&gt;&lt;br&gt;&lt;b&gt;AdminInterface&lt;/b&gt;&lt;/p&gt;&lt;hr size=&quot;1&quot;&gt;&lt;p style=&quot;margin:0px;margin-left:4px;&quot;&gt;&lt;br&gt;&lt;/p&gt;&lt;hr size=&quot;1&quot;&gt;&lt;p style=&quot;margin:0px;margin-left:4px;&quot;&gt;+ Add (name: String, id: String, password: String, role: String) : boolean&lt;/p&gt;&lt;p style=&quot;margin:0px;margin-left:4px;&quot;&gt;+ Remove (userId: String) : boolean&lt;/p&gt;" style="verticalAlign=top;align=left;overflow=fill;fontSize=12;fontFamily=Helvetica;html=1;whiteSpace=wrap;" vertex="1" parent="1">
          <mxGeometry x="-55" y="100" width="190" height="150" as="geometry" />
        </mxCell>
        <mxCell id="tbCGJLyKlgOgYzXRze9G-16" value="" style="endArrow=block;dashed=1;endFill=0;endSize=12;html=1;rounded=0;exitX=0.75;exitY=0;exitDx=0;exitDy=0;entryX=0.5;entryY=1;entryDx=0;entryDy=0;" edge="1" parent="1" source="Etq4UHucQwQJqIpz8_BF-23" target="tbCGJLyKlgOgYzXRze9G-15">
          <mxGeometry width="160" relative="1" as="geometry">
            <mxPoint x="25" y="420" as="sourcePoint" />
            <mxPoint x="-55" y="270" as="targetPoint" />
          </mxGeometry>
        </mxCell>
        <mxCell id="tbCGJLyKlgOgYzXRze9G-17" value="" style="endArrow=block;dashed=1;endFill=0;endSize=12;html=1;rounded=0;exitX=0.5;exitY=0;exitDx=0;exitDy=0;entryX=0.5;entryY=1;entryDx=0;entryDy=0;" edge="1" parent="1" source="Etq4UHucQwQJqIpz8_BF-39" target="tbCGJLyKlgOgYzXRze9G-15">
          <mxGeometry width="160" relative="1" as="geometry">
            <mxPoint x="25" y="420" as="sourcePoint" />
            <mxPoint x="185" y="420" as="targetPoint" />
          </mxGeometry>
        </mxCell>
        <mxCell id="tbCGJLyKlgOgYzXRze9G-24" value="&lt;b&gt;AddAnnouncement&lt;/b&gt;" style="html=1;whiteSpace=wrap;" vertex="1" parent="1">
          <mxGeometry x="-420" y="700" width="116" height="50" as="geometry" />
        </mxCell>
        <mxCell id="tbCGJLyKlgOgYzXRze9G-25" value="&lt;b&gt;AddNewAssignment&lt;/b&gt;" style="html=1;whiteSpace=wrap;" vertex="1" parent="1">
          <mxGeometry x="-260" y="700" width="115" height="50" as="geometry" />
        </mxCell>
        <mxCell id="tbCGJLyKlgOgYzXRze9G-30" value="&lt;b&gt;AddNewUser&lt;/b&gt;" style="html=1;whiteSpace=wrap;" vertex="1" parent="1">
          <mxGeometry x="-105" y="700" width="110" height="50" as="geometry" />
        </mxCell>
        <mxCell id="tbCGJLyKlgOgYzXRze9G-33" value="&lt;b&gt;Announcement&lt;/b&gt;" style="html=1;whiteSpace=wrap;" vertex="1" parent="1">
          <mxGeometry x="50" y="700" width="110" height="50" as="geometry" />
        </mxCell>
        <mxCell id="tbCGJLyKlgOgYzXRze9G-42" value="&lt;b&gt;Home&lt;/b&gt;" style="html=1;whiteSpace=wrap;" vertex="1" parent="1">
          <mxGeometry x="530" y="700" width="110" height="50" as="geometry" />
        </mxCell>
        <mxCell id="tbCGJLyKlgOgYzXRze9G-43" value="&lt;b&gt;login&lt;/b&gt;" style="html=1;whiteSpace=wrap;" vertex="1" parent="1">
          <mxGeometry x="670" y="700" width="110" height="50" as="geometry" />
        </mxCell>
        <mxCell id="tbCGJLyKlgOgYzXRze9G-44" value="&lt;b&gt;RemoveAnnouncement&lt;/b&gt;" style="html=1;whiteSpace=wrap;" vertex="1" parent="1">
          <mxGeometry x="600" y="1050" width="160" height="50" as="geometry" />
        </mxCell>
        <mxCell id="tbCGJLyKlgOgYzXRze9G-45" value="&lt;b&gt;RemoveUser&lt;/b&gt;" style="html=1;whiteSpace=wrap;" vertex="1" parent="1">
          <mxGeometry x="450" y="1050" width="100" height="50" as="geometry" />
        </mxCell>
        <mxCell id="tbCGJLyKlgOgYzXRze9G-47" value="&lt;b&gt;StudentAttendance&lt;/b&gt;" style="html=1;whiteSpace=wrap;" vertex="1" parent="1">
          <mxGeometry x="-370" y="1050" width="120" height="50" as="geometry" />
        </mxCell>
        <mxCell id="tbCGJLyKlgOgYzXRze9G-48" value="&lt;b&gt;SubmitAssignment&lt;/b&gt;" style="html=1;whiteSpace=wrap;" vertex="1" parent="1">
          <mxGeometry x="-200" y="1050" width="120" height="50" as="geometry" />
        </mxCell>
        <mxCell id="tbCGJLyKlgOgYzXRze9G-49" value="&lt;b&gt;SubmittedAssignement&lt;/b&gt;" style="html=1;whiteSpace=wrap;" vertex="1" parent="1">
          <mxGeometry x="-50" y="1050" width="140" height="50" as="geometry" />
        </mxCell>
        <mxCell id="tbCGJLyKlgOgYzXRze9G-50" value="&lt;b&gt;UserList&lt;/b&gt;" style="html=1;whiteSpace=wrap;" vertex="1" parent="1">
          <mxGeometry x="120" y="1050" width="110" height="50" as="geometry" />
        </mxCell>
        <mxCell id="tbCGJLyKlgOgYzXRze9G-69" value="&lt;b&gt;&lt;font style=&quot;font-size: 20px;&quot;&gt;UI Class Diagram&lt;/font&gt;&lt;/b&gt;" style="text;html=1;strokeColor=none;fillColor=none;align=center;verticalAlign=middle;whiteSpace=wrap;rounded=0;" vertex="1" parent="1">
          <mxGeometry x="60" y="640" width="250" height="30" as="geometry" />
        </mxCell>
        <mxCell id="tbCGJLyKlgOgYzXRze9G-71" value="&lt;b&gt;&lt;font style=&quot;font-size: 20px;&quot;&gt;School Hierarchy Class Diagram&lt;/font&gt;&lt;/b&gt;" style="text;html=1;strokeColor=none;fillColor=none;align=center;verticalAlign=middle;whiteSpace=wrap;rounded=0;" vertex="1" parent="1">
          <mxGeometry x="35" y="30" width="360" height="60" as="geometry" />
        </mxCell>
        <mxCell id="tbCGJLyKlgOgYzXRze9G-23" value="&lt;p style=&quot;margin:0px;margin-top:4px;text-align:center;&quot;&gt;&lt;br&gt;&lt;b&gt;JFrame&lt;/b&gt;&lt;/p&gt;" style="verticalAlign=top;align=left;overflow=fill;fontSize=12;fontFamily=Helvetica;html=1;whiteSpace=wrap;" vertex="1" parent="1">
          <mxGeometry x="360" y="850" width="140" height="60" as="geometry" />
        </mxCell>
        <mxCell id="tbCGJLyKlgOgYzXRze9G-46" value="&lt;b&gt;ScoreAssignment&lt;/b&gt;" style="html=1;whiteSpace=wrap;" vertex="1" parent="1">
          <mxGeometry x="290" y="1050" width="110" height="50" as="geometry" />
        </mxCell>
        <mxCell id="tbCGJLyKlgOgYzXRze9G-34" value="&lt;b&gt;Assignment&lt;/b&gt;" style="html=1;whiteSpace=wrap;" vertex="1" parent="1">
          <mxGeometry x="200" y="700" width="110" height="50" as="geometry" />
        </mxCell>
        <mxCell id="tbCGJLyKlgOgYzXRze9G-39" value="&lt;b&gt;Attedance&lt;/b&gt;" style="html=1;whiteSpace=wrap;" vertex="1" parent="1">
          <mxGeometry x="370" y="700" width="110" height="50" as="geometry" />
        </mxCell>
        <mxCell id="tbCGJLyKlgOgYzXRze9G-79" value="" style="endArrow=block;dashed=1;endFill=0;endSize=12;html=1;rounded=0;exitX=0;exitY=1;exitDx=0;exitDy=0;edgeStyle=elbowEdgeStyle;elbow=vertical;entryX=0.5;entryY=0;entryDx=0;entryDy=0;" edge="1" parent="1" source="tbCGJLyKlgOgYzXRze9G-24" target="tbCGJLyKlgOgYzXRze9G-14">
          <mxGeometry width="160" relative="1" as="geometry">
            <mxPoint x="220" y="680" as="sourcePoint" />
            <mxPoint x="-190" y="840" as="targetPoint" />
            <Array as="points">
              <mxPoint x="-40" y="797" />
            </Array>
          </mxGeometry>
        </mxCell>
        <mxCell id="tbCGJLyKlgOgYzXRze9G-80" value="" style="endArrow=block;dashed=1;endFill=0;endSize=12;html=1;rounded=0;exitX=0;exitY=1;exitDx=0;exitDy=0;edgeStyle=elbowEdgeStyle;elbow=vertical;" edge="1" parent="1">
          <mxGeometry width="160" relative="1" as="geometry">
            <mxPoint x="-260" y="747" as="sourcePoint" />
            <mxPoint x="25" y="840" as="targetPoint" />
            <Array as="points">
              <mxPoint x="-120" y="797" />
            </Array>
          </mxGeometry>
        </mxCell>
        <mxCell id="tbCGJLyKlgOgYzXRze9G-81" value="" style="endArrow=block;dashed=1;endFill=0;endSize=12;html=1;rounded=0;exitX=0;exitY=1;exitDx=0;exitDy=0;edgeStyle=elbowEdgeStyle;elbow=vertical;entryX=0.5;entryY=0;entryDx=0;entryDy=0;" edge="1" parent="1">
          <mxGeometry width="160" relative="1" as="geometry">
            <mxPoint x="-105" y="747" as="sourcePoint" />
            <mxPoint x="25" y="839" as="targetPoint" />
            <Array as="points">
              <mxPoint x="-30" y="797" />
            </Array>
          </mxGeometry>
        </mxCell>
        <mxCell id="tbCGJLyKlgOgYzXRze9G-82" value="" style="endArrow=block;dashed=1;endFill=0;endSize=12;html=1;rounded=0;elbow=vertical;edgeStyle=elbowEdgeStyle;exitX=0;exitY=1;exitDx=0;exitDy=0;" edge="1" parent="1" source="tbCGJLyKlgOgYzXRze9G-33">
          <mxGeometry width="160" relative="1" as="geometry">
            <mxPoint x="160" y="747" as="sourcePoint" />
            <mxPoint x="25" y="840" as="targetPoint" />
            <Array as="points">
              <mxPoint x="100" y="797" />
            </Array>
          </mxGeometry>
        </mxCell>
        <mxCell id="tbCGJLyKlgOgYzXRze9G-83" style="edgeStyle=elbowEdgeStyle;rounded=0;orthogonalLoop=1;jettySize=auto;elbow=vertical;html=1;entryX=0.5;entryY=0;entryDx=0;entryDy=0;" edge="1" parent="1" source="tbCGJLyKlgOgYzXRze9G-14" target="tbCGJLyKlgOgYzXRze9G-14">
          <mxGeometry relative="1" as="geometry" />
        </mxCell>
        <mxCell id="tbCGJLyKlgOgYzXRze9G-84" value="" style="endArrow=block;dashed=1;endFill=0;endSize=12;html=1;rounded=0;elbow=vertical;edgeStyle=elbowEdgeStyle;exitX=0;exitY=1;exitDx=0;exitDy=0;entryX=0.5;entryY=0;entryDx=0;entryDy=0;" edge="1" parent="1" source="tbCGJLyKlgOgYzXRze9G-34" target="tbCGJLyKlgOgYzXRze9G-14">
          <mxGeometry width="160" relative="1" as="geometry">
            <mxPoint x="310" y="747" as="sourcePoint" />
            <mxPoint x="30" y="837" as="targetPoint" />
            <Array as="points">
              <mxPoint x="170" y="797" />
            </Array>
          </mxGeometry>
        </mxCell>
        <mxCell id="tbCGJLyKlgOgYzXRze9G-85" value="" style="endArrow=block;dashed=1;endFill=0;endSize=12;html=1;rounded=0;elbow=vertical;edgeStyle=elbowEdgeStyle;exitX=0;exitY=1;exitDx=0;exitDy=0;" edge="1" parent="1" source="tbCGJLyKlgOgYzXRze9G-39">
          <mxGeometry width="160" relative="1" as="geometry">
            <mxPoint x="479.99999999999955" y="747" as="sourcePoint" />
            <mxPoint x="25" y="840" as="targetPoint" />
            <Array as="points">
              <mxPoint x="320" y="797" />
            </Array>
          </mxGeometry>
        </mxCell>
        <mxCell id="tbCGJLyKlgOgYzXRze9G-86" value="" style="endArrow=block;dashed=1;endFill=0;endSize=12;html=1;rounded=0;elbow=vertical;edgeStyle=elbowEdgeStyle;exitX=0;exitY=1;exitDx=0;exitDy=0;entryX=0.5;entryY=0;entryDx=0;entryDy=0;" edge="1" parent="1" target="tbCGJLyKlgOgYzXRze9G-14">
          <mxGeometry width="160" relative="1" as="geometry">
            <mxPoint x="530" y="747" as="sourcePoint" />
            <mxPoint x="30" y="837" as="targetPoint" />
            <Array as="points">
              <mxPoint x="280" y="797" />
            </Array>
          </mxGeometry>
        </mxCell>
        <mxCell id="tbCGJLyKlgOgYzXRze9G-88" value="" style="endArrow=block;dashed=1;endFill=0;endSize=12;html=1;rounded=0;elbow=vertical;edgeStyle=elbowEdgeStyle;exitX=0;exitY=1;exitDx=0;exitDy=0;" edge="1" parent="1">
          <mxGeometry width="160" relative="1" as="geometry">
            <mxPoint x="670" y="747" as="sourcePoint" />
            <mxPoint x="25" y="840" as="targetPoint" />
            <Array as="points">
              <mxPoint x="420" y="797" />
            </Array>
          </mxGeometry>
        </mxCell>
        <mxCell id="tbCGJLyKlgOgYzXRze9G-89" value="" style="endArrow=block;dashed=1;endFill=0;endSize=12;html=1;rounded=0;exitX=0;exitY=0;exitDx=0;exitDy=0;edgeStyle=elbowEdgeStyle;elbow=vertical;entryX=0.5;entryY=1;entryDx=0;entryDy=0;" edge="1" parent="1" source="tbCGJLyKlgOgYzXRze9G-47" target="tbCGJLyKlgOgYzXRze9G-14">
          <mxGeometry width="160" relative="1" as="geometry">
            <mxPoint x="-410" y="760" as="sourcePoint" />
            <mxPoint x="30" y="900" as="targetPoint" />
            <Array as="points">
              <mxPoint x="-180" y="1000" />
            </Array>
          </mxGeometry>
        </mxCell>
        <mxCell id="tbCGJLyKlgOgYzXRze9G-90" value="" style="endArrow=block;dashed=1;endFill=0;endSize=12;html=1;rounded=0;exitX=0;exitY=0;exitDx=0;exitDy=0;edgeStyle=elbowEdgeStyle;elbow=vertical;entryX=0.5;entryY=1;entryDx=0;entryDy=0;" edge="1" parent="1" source="tbCGJLyKlgOgYzXRze9G-48" target="tbCGJLyKlgOgYzXRze9G-14">
          <mxGeometry width="160" relative="1" as="geometry">
            <mxPoint x="-360" y="1060" as="sourcePoint" />
            <mxPoint x="35" y="900" as="targetPoint" />
            <Array as="points">
              <mxPoint x="-80" y="1000" />
            </Array>
          </mxGeometry>
        </mxCell>
        <mxCell id="tbCGJLyKlgOgYzXRze9G-91" value="" style="endArrow=block;dashed=1;endFill=0;endSize=12;html=1;rounded=0;edgeStyle=elbowEdgeStyle;elbow=vertical;entryX=0.5;entryY=1;entryDx=0;entryDy=0;exitX=0;exitY=0;exitDx=0;exitDy=0;" edge="1" parent="1" source="tbCGJLyKlgOgYzXRze9G-49" target="tbCGJLyKlgOgYzXRze9G-14">
          <mxGeometry width="160" relative="1" as="geometry">
            <mxPoint x="-190" y="1070" as="sourcePoint" />
            <mxPoint x="35" y="900" as="targetPoint" />
            <Array as="points">
              <mxPoint y="1000" />
            </Array>
          </mxGeometry>
        </mxCell>
        <mxCell id="tbCGJLyKlgOgYzXRze9G-92" value="" style="endArrow=block;dashed=1;endFill=0;endSize=12;html=1;rounded=0;edgeStyle=elbowEdgeStyle;elbow=vertical;entryX=0.5;entryY=1;entryDx=0;entryDy=0;exitX=0;exitY=0;exitDx=0;exitDy=0;" edge="1" parent="1" source="tbCGJLyKlgOgYzXRze9G-50" target="tbCGJLyKlgOgYzXRze9G-14">
          <mxGeometry width="160" relative="1" as="geometry">
            <mxPoint x="-40" y="1060" as="sourcePoint" />
            <mxPoint x="35" y="900" as="targetPoint" />
            <Array as="points">
              <mxPoint x="80" y="1000" />
            </Array>
          </mxGeometry>
        </mxCell>
        <mxCell id="tbCGJLyKlgOgYzXRze9G-93" value="" style="endArrow=block;dashed=1;endFill=0;endSize=12;html=1;rounded=0;edgeStyle=elbowEdgeStyle;elbow=vertical;entryX=0.5;entryY=1;entryDx=0;entryDy=0;exitX=0;exitY=0;exitDx=0;exitDy=0;" edge="1" parent="1" source="tbCGJLyKlgOgYzXRze9G-46" target="tbCGJLyKlgOgYzXRze9G-14">
          <mxGeometry width="160" relative="1" as="geometry">
            <mxPoint x="130" y="1060" as="sourcePoint" />
            <mxPoint x="35" y="900" as="targetPoint" />
            <Array as="points">
              <mxPoint x="170" y="1000" />
            </Array>
          </mxGeometry>
        </mxCell>
        <mxCell id="tbCGJLyKlgOgYzXRze9G-95" value="" style="endArrow=block;dashed=1;endFill=0;endSize=12;html=1;rounded=0;edgeStyle=elbowEdgeStyle;elbow=vertical;exitX=0;exitY=0;exitDx=0;exitDy=0;" edge="1" parent="1">
          <mxGeometry width="160" relative="1" as="geometry">
            <mxPoint x="454" y="1050" as="sourcePoint" />
            <mxPoint x="24" y="890" as="targetPoint" />
            <Array as="points">
              <mxPoint x="254" y="1000" />
            </Array>
          </mxGeometry>
        </mxCell>
        <mxCell id="tbCGJLyKlgOgYzXRze9G-96" value="" style="endArrow=block;dashed=1;endFill=0;endSize=12;html=1;rounded=0;edgeStyle=elbowEdgeStyle;elbow=vertical;exitX=0;exitY=0;exitDx=0;exitDy=0;" edge="1" parent="1" source="tbCGJLyKlgOgYzXRze9G-44">
          <mxGeometry width="160" relative="1" as="geometry">
            <mxPoint x="596" y="1050" as="sourcePoint" />
            <mxPoint x="26" y="890" as="targetPoint" />
            <Array as="points">
              <mxPoint x="316" y="1000" />
            </Array>
          </mxGeometry>
        </mxCell>
        <mxCell id="tbCGJLyKlgOgYzXRze9G-97" value="" style="endArrow=block;endSize=16;endFill=0;html=1;rounded=0;edgeStyle=elbowEdgeStyle;elbow=vertical;entryX=0.5;entryY=0;entryDx=0;entryDy=0;exitX=1;exitY=1;exitDx=0;exitDy=0;" edge="1" parent="1" source="tbCGJLyKlgOgYzXRze9G-43" target="tbCGJLyKlgOgYzXRze9G-23">
          <mxGeometry width="160" relative="1" as="geometry">
            <mxPoint x="760" y="770" as="sourcePoint" />
            <mxPoint x="260" y="930" as="targetPoint" />
            <Array as="points">
              <mxPoint x="610" y="820" />
            </Array>
          </mxGeometry>
        </mxCell>
        <mxCell id="tbCGJLyKlgOgYzXRze9G-98" value="" style="endArrow=block;endSize=16;endFill=0;html=1;rounded=0;elbow=vertical;exitX=1;exitY=1;exitDx=0;exitDy=0;entryX=0.5;entryY=0;entryDx=0;entryDy=0;edgeStyle=elbowEdgeStyle;" edge="1" parent="1" source="tbCGJLyKlgOgYzXRze9G-42" target="tbCGJLyKlgOgYzXRze9G-23">
          <mxGeometry width="160" relative="1" as="geometry">
            <mxPoint x="620" y="770" as="sourcePoint" />
            <mxPoint x="300" y="790" as="targetPoint" />
            <Array as="points">
              <mxPoint x="540" y="820" />
            </Array>
          </mxGeometry>
        </mxCell>
        <mxCell id="tbCGJLyKlgOgYzXRze9G-99" value="&lt;b&gt;Extends&lt;/b&gt;" style="endArrow=block;endSize=16;endFill=0;html=1;rounded=0;elbow=vertical;exitX=1;exitY=1;exitDx=0;exitDy=0;edgeStyle=elbowEdgeStyle;" edge="1" parent="1" source="tbCGJLyKlgOgYzXRze9G-39">
          <mxGeometry x="0.6" width="160" relative="1" as="geometry">
            <mxPoint x="650" y="760" as="sourcePoint" />
            <mxPoint x="430" y="850" as="targetPoint" />
            <Array as="points">
              <mxPoint x="450" y="820" />
            </Array>
            <mxPoint as="offset" />
          </mxGeometry>
        </mxCell>
        <mxCell id="tbCGJLyKlgOgYzXRze9G-100" value="" style="endArrow=block;endSize=16;endFill=0;html=1;rounded=0;elbow=vertical;exitX=1;exitY=1;exitDx=0;exitDy=0;edgeStyle=elbowEdgeStyle;" edge="1" parent="1" source="tbCGJLyKlgOgYzXRze9G-34">
          <mxGeometry x="0.0029" width="160" relative="1" as="geometry">
            <mxPoint x="490" y="760" as="sourcePoint" />
            <mxPoint x="430" y="850" as="targetPoint" />
            <Array as="points">
              <mxPoint x="370" y="820" />
            </Array>
            <mxPoint as="offset" />
          </mxGeometry>
        </mxCell>
        <mxCell id="tbCGJLyKlgOgYzXRze9G-101" value="" style="endArrow=block;endSize=16;endFill=0;html=1;rounded=0;elbow=vertical;exitX=1;exitY=1;exitDx=0;exitDy=0;edgeStyle=elbowEdgeStyle;" edge="1" parent="1" source="tbCGJLyKlgOgYzXRze9G-33">
          <mxGeometry width="160" relative="1" as="geometry">
            <mxPoint x="320" y="760" as="sourcePoint" />
            <mxPoint x="430" y="850" as="targetPoint" />
            <Array as="points">
              <mxPoint x="300" y="820" />
            </Array>
          </mxGeometry>
        </mxCell>
        <mxCell id="tbCGJLyKlgOgYzXRze9G-102" value="" style="endArrow=block;endSize=16;endFill=0;html=1;rounded=0;elbow=vertical;exitX=1;exitY=1;exitDx=0;exitDy=0;edgeStyle=elbowEdgeStyle;" edge="1" parent="1" source="tbCGJLyKlgOgYzXRze9G-30">
          <mxGeometry width="160" relative="1" as="geometry">
            <mxPoint x="330" y="770" as="sourcePoint" />
            <mxPoint x="430" y="850" as="targetPoint" />
            <Array as="points">
              <mxPoint x="230" y="820" />
            </Array>
          </mxGeometry>
        </mxCell>
        <mxCell id="tbCGJLyKlgOgYzXRze9G-103" value="" style="endArrow=block;endSize=16;endFill=0;html=1;rounded=0;elbow=vertical;exitX=1;exitY=1;exitDx=0;exitDy=0;edgeStyle=elbowEdgeStyle;entryX=0.5;entryY=0;entryDx=0;entryDy=0;" edge="1" parent="1" source="tbCGJLyKlgOgYzXRze9G-25" target="tbCGJLyKlgOgYzXRze9G-23">
          <mxGeometry width="160" relative="1" as="geometry">
            <mxPoint x="340" y="780" as="sourcePoint" />
            <mxPoint x="460" y="880" as="targetPoint" />
            <Array as="points">
              <mxPoint x="160" y="820" />
            </Array>
          </mxGeometry>
        </mxCell>
        <mxCell id="tbCGJLyKlgOgYzXRze9G-104" value="" style="endArrow=block;endSize=16;endFill=0;html=1;rounded=0;elbow=vertical;exitX=1;exitY=1;exitDx=0;exitDy=0;edgeStyle=elbowEdgeStyle;entryX=0.5;entryY=0;entryDx=0;entryDy=0;" edge="1" parent="1" source="tbCGJLyKlgOgYzXRze9G-24" target="tbCGJLyKlgOgYzXRze9G-23">
          <mxGeometry width="160" relative="1" as="geometry">
            <mxPoint x="350" y="790" as="sourcePoint" />
            <mxPoint x="470" y="890" as="targetPoint" />
            <Array as="points">
              <mxPoint x="60" y="820" />
            </Array>
          </mxGeometry>
        </mxCell>
        <mxCell id="tbCGJLyKlgOgYzXRze9G-105" value="&lt;b&gt;Extends&lt;/b&gt;" style="endArrow=block;endSize=16;endFill=0;html=1;rounded=0;edgeStyle=elbowEdgeStyle;elbow=vertical;entryX=0.5;entryY=1;entryDx=0;entryDy=0;exitX=1;exitY=0;exitDx=0;exitDy=0;" edge="1" parent="1" source="tbCGJLyKlgOgYzXRze9G-44" target="tbCGJLyKlgOgYzXRze9G-23">
          <mxGeometry x="0.7872" width="160" relative="1" as="geometry">
            <mxPoint x="780" y="860" as="sourcePoint" />
            <mxPoint x="430" y="960" as="targetPoint" />
            <Array as="points">
              <mxPoint x="550" y="960" />
            </Array>
            <mxPoint as="offset" />
          </mxGeometry>
        </mxCell>
        <mxCell id="tbCGJLyKlgOgYzXRze9G-107" value="" style="endArrow=block;endSize=16;endFill=0;html=1;rounded=0;edgeStyle=elbowEdgeStyle;elbow=vertical;exitX=1;exitY=0;exitDx=0;exitDy=0;" edge="1" parent="1" source="tbCGJLyKlgOgYzXRze9G-45">
          <mxGeometry x="0.1064" width="160" relative="1" as="geometry">
            <mxPoint x="770" y="1060" as="sourcePoint" />
            <mxPoint x="430" y="910" as="targetPoint" />
            <Array as="points">
              <mxPoint x="500" y="960" />
            </Array>
            <mxPoint as="offset" />
          </mxGeometry>
        </mxCell>
        <mxCell id="tbCGJLyKlgOgYzXRze9G-112" value="" style="endArrow=block;endSize=16;endFill=0;html=1;rounded=0;edgeStyle=elbowEdgeStyle;elbow=vertical;exitX=1;exitY=0;exitDx=0;exitDy=0;" edge="1" parent="1" source="tbCGJLyKlgOgYzXRze9G-46">
          <mxGeometry x="0.1064" width="160" relative="1" as="geometry">
            <mxPoint x="560" y="1060" as="sourcePoint" />
            <mxPoint x="430" y="910" as="targetPoint" />
            <Array as="points">
              <mxPoint x="420" y="960" />
            </Array>
            <mxPoint as="offset" />
          </mxGeometry>
        </mxCell>
        <mxCell id="tbCGJLyKlgOgYzXRze9G-113" value="" style="endArrow=block;endSize=16;endFill=0;html=1;rounded=0;edgeStyle=elbowEdgeStyle;elbow=vertical;exitX=1;exitY=0;exitDx=0;exitDy=0;" edge="1" parent="1" source="tbCGJLyKlgOgYzXRze9G-50">
          <mxGeometry x="0.1064" width="160" relative="1" as="geometry">
            <mxPoint x="410" y="1060" as="sourcePoint" />
            <mxPoint x="430" y="910" as="targetPoint" />
            <Array as="points">
              <mxPoint x="340" y="960" />
            </Array>
            <mxPoint as="offset" />
          </mxGeometry>
        </mxCell>
        <mxCell id="tbCGJLyKlgOgYzXRze9G-114" value="" style="endArrow=block;endSize=16;endFill=0;html=1;rounded=0;edgeStyle=elbowEdgeStyle;elbow=vertical;exitX=1;exitY=0;exitDx=0;exitDy=0;" edge="1" parent="1" source="tbCGJLyKlgOgYzXRze9G-49">
          <mxGeometry x="0.1064" width="160" relative="1" as="geometry">
            <mxPoint x="240" y="1060" as="sourcePoint" />
            <mxPoint x="430" y="910" as="targetPoint" />
            <Array as="points">
              <mxPoint x="260" y="960" />
            </Array>
            <mxPoint as="offset" />
          </mxGeometry>
        </mxCell>
        <mxCell id="tbCGJLyKlgOgYzXRze9G-115" value="" style="endArrow=block;endSize=16;endFill=0;html=1;rounded=0;edgeStyle=elbowEdgeStyle;elbow=vertical;exitX=1;exitY=0;exitDx=0;exitDy=0;" edge="1" parent="1" source="tbCGJLyKlgOgYzXRze9G-48">
          <mxGeometry x="0.1064" width="160" relative="1" as="geometry">
            <mxPoint x="100" y="1060" as="sourcePoint" />
            <mxPoint x="430" y="910" as="targetPoint" />
            <Array as="points">
              <mxPoint x="180" y="960" />
            </Array>
            <mxPoint as="offset" />
          </mxGeometry>
        </mxCell>
        <mxCell id="tbCGJLyKlgOgYzXRze9G-116" value="" style="endArrow=block;endSize=16;endFill=0;html=1;rounded=0;edgeStyle=elbowEdgeStyle;elbow=vertical;exitX=1;exitY=0;exitDx=0;exitDy=0;" edge="1" parent="1" source="tbCGJLyKlgOgYzXRze9G-47">
          <mxGeometry x="0.1064" width="160" relative="1" as="geometry">
            <mxPoint x="-70" y="1060" as="sourcePoint" />
            <mxPoint x="430" y="910" as="targetPoint" />
            <Array as="points">
              <mxPoint x="100" y="960" />
            </Array>
            <mxPoint as="offset" />
          </mxGeometry>
        </mxCell>
      </root>
    </mxGraphModel>
  </diagram>
</mxfile>
